<?xml version="1.0" encoding="utf-8"?>
<!-- Generator: Adobe Illustrator 24.0.1, SVG Export Plug-In . SVG Version: 6.00 Build 0)  -->
<svg version="1.1" id="Capa_1" xmlns="http://www.w3.org/2000/svg" xmlns:xlink="http://www.w3.org/1999/xlink" x="0px" y="0px"
	 viewBox="0 0 18 18" style="enable-background:new 0 0 18 18;" xml:space="preserve">
<style type="text/css">
	.st0{fill:#FFFFFF;}
</style>
<g>
	<path class="st0" d="M10.4,8.67H9.32v-1.3h1.9c0.28,0,0.51-0.2,0.51-0.45s-0.23-0.45-0.51-0.45h-1.9V5.7
		c0-0.25-0.23-0.45-0.51-0.45c-0.28,0-0.51,0.2-0.51,0.45v0.77H7.28c-0.97,0-1.75,0.7-1.75,1.56c0,0.86,0.79,1.56,1.75,1.56H8.3v1.3
		H6.37c-0.28,0-0.51,0.2-0.51,0.45s0.23,0.45,0.51,0.45H8.3v0.73c0,0.25,0.23,0.45,0.51,0.45c0.28,0,0.51-0.2,0.51-0.45v-0.73h1.08
		c0.93,0,1.69-0.67,1.69-1.5v-0.11C12.09,9.35,11.33,8.67,10.4,8.67z M7.28,8.67c-0.4,0-0.73-0.29-0.73-0.65
		c0-0.36,0.33-0.65,0.73-0.65H8.3v1.3L7.28,8.67z M11.07,10.29c0,0.33-0.3,0.59-0.67,0.59H9.32v-1.3h1.08
		c0.37,0,0.67,0.27,0.67,0.59V10.29z"/>
	<path class="st0" d="M13.66,0H4.34C3.71,0,3.2,0.51,3.2,1.14v15.72C3.2,17.49,3.71,18,4.34,18h9.32c0.63,0,1.14-0.51,1.14-1.14
		V1.14C14.8,0.51,14.29,0,13.66,0z M3.77,2.86h10.45v11.9H3.77V2.86z M4.34,0.57h9.32c0.31,0,0.57,0.26,0.57,0.57v1.34H3.77V1.14
		C3.77,0.83,4.03,0.57,4.34,0.57z M13.66,17.43H4.34c-0.31,0-0.57-0.25-0.57-0.57v-1.71h10.45v1.71
		C14.23,17.17,13.97,17.43,13.66,17.43z"/>
	<path class="st0" d="M9,15.4c-0.52,0-0.94,0.42-0.94,0.94c0,0.52,0.42,0.94,0.94,0.94c0.52,0,0.94-0.42,0.94-0.94
		C9.94,15.82,9.52,15.4,9,15.4z M9,16.89c-0.31,0-0.55-0.25-0.55-0.55c0-0.31,0.25-0.55,0.55-0.55c0.31,0,0.55,0.25,0.55,0.55
		C9.56,16.64,9.31,16.89,9,16.89z"/>
	<path class="st0" d="M7.71,1.81h2.59c0.11,0,0.19-0.09,0.19-0.19c0-0.11-0.09-0.19-0.19-0.19H7.71c-0.11,0-0.19,0.09-0.19,0.19
		C7.52,1.73,7.6,1.81,7.71,1.81z"/>
	<path class="st0" d="M7.02,1.81c0.05,0,0.1-0.02,0.13-0.06c0.04-0.04,0.06-0.08,0.06-0.13c0-0.05-0.02-0.1-0.06-0.13
		C7.12,1.45,7.07,1.43,7.02,1.43c-0.05,0-0.1,0.02-0.13,0.06C6.85,1.52,6.83,1.57,6.83,1.62c0,0.05,0.02,0.1,0.06,0.13
		C6.92,1.79,6.97,1.81,7.02,1.81z"/>
</g>
</svg>
